<svg width="50" height="50" viewBox="0 0 50 50" fill="none" xmlns="http://www.w3.org/2000/svg">
<path d="M45.0001 20.7908C41.0693 20.8002 37.2349 19.5711 34.0385 17.2772V33.2759C34.0374 36.239 33.1341 39.1312 31.4493 41.5657C29.7645 44.0002 27.3785 45.861 24.6105 46.8992C21.8424 47.9375 18.8241 48.1037 15.9593 47.3757C13.0944 46.6477 10.5196 45.0601 8.57893 42.8253C6.6383 40.5904 5.42444 37.8149 5.09964 34.8697C4.77484 31.9245 5.3546 28.9501 6.76139 26.3442C8.16818 23.7383 10.3349 21.6251 12.972 20.2871C15.609 18.9492 18.5905 18.4503 21.518 18.8572V26.904C20.1784 26.4815 18.7399 26.4942 17.4079 26.9403C16.076 27.3864 14.9187 28.2431 14.1013 29.388C13.2839 30.5329 12.8482 31.9074 12.8565 33.3154C12.8648 34.7233 13.3165 36.0926 14.1473 37.2278C14.9781 38.3629 16.1454 39.2059 17.4825 39.6362C18.8196 40.0666 20.2582 40.0623 21.5927 39.624C22.9273 39.1858 24.0896 38.3359 24.9136 37.1959C25.7377 36.0558 26.1814 34.6838 26.1814 33.2759V2H34.0385C34.0331 2.66525 34.0886 3.32958 34.2046 3.98462V3.98462C34.4776 5.44688 35.0453 6.83793 35.8729 8.07268C36.7006 9.30743 37.7707 10.3599 39.018 11.1658C40.7924 12.3421 42.8728 12.9691 45.0001 12.9687V20.7908Z" fill="#1C0D0B"/>
</svg>
