<?xml version="1.0" encoding="utf-8"?>
<!-- Generator: Adobe Illustrator 26.0.1, SVG Export Plug-In . SVG Version: 6.00 Build 0)  -->
<svg version="1.1" id="Layer_1" xmlns="http://www.w3.org/2000/svg" xmlns:xlink="http://www.w3.org/1999/xlink" x="0px" y="0px"
	 viewBox="0 0 50 50" style="enable-background:new 0 0 50 50;" xml:space="preserve">
<style type="text/css">
	.st0{fill:#FFFFFF;}
</style>
<path class="st0" d="M45,20.8c-3.9,0-7.8-1.2-11-3.5v16c0,3-0.9,5.9-2.6,8.3c-1.7,2.4-4.1,4.3-6.8,5.3c-2.8,1-5.8,1.2-8.7,0.5
	c-2.9-0.7-5.4-2.3-7.4-4.6c-1.9-2.2-3.2-5-3.5-8c-0.3-2.9,0.3-5.9,1.7-8.5s3.6-4.7,6.2-6.1c2.6-1.3,5.6-1.8,8.5-1.4v8
	c-1.3-0.4-2.8-0.4-4.1,0c-1.3,0.4-2.5,1.3-3.3,2.4c-0.8,1.1-1.3,2.5-1.2,3.9c0,1.4,0.5,2.8,1.3,3.9c0.8,1.1,2,2,3.3,2.4
	c1.3,0.4,2.8,0.4,4.1,0c1.3-0.4,2.5-1.3,3.3-2.4c0.8-1.1,1.3-2.5,1.3-3.9V2H34c0,0.7,0.1,1.3,0.2,2l0,0c0.3,1.5,0.8,2.9,1.7,4.1
	c0.8,1.2,1.9,2.3,3.1,3.1c1.8,1.2,3.9,1.8,6,1.8V20.8z"/>
</svg>
